<svg width="16" height="14" viewBox="0 0 16 14" fill="none" xmlns="http://www.w3.org/2000/svg">
<g clip-path="url(#clip0)">
<path fill-rule="evenodd" clip-rule="evenodd" d="M11.8913 5.12878L8.66134 0.293778C8.51278 0.125282 8.30516 0.0203749 8.08138 0.000778499C7.96621 -0.00475312 7.85152 0.0192654 7.74825 0.0705493C7.64499 0.121833 7.55661 0.198677 7.49142 0.293778L4.26131 5.12878H0.731407C0.633753 5.12291 0.535973 5.13787 0.444542 5.17267C0.353111 5.20747 0.270046 5.26132 0.201012 5.33064C0.131977 5.39995 0.078455 5.48316 0.0440293 5.57473C0.00960371 5.6663 -0.0048463 5.76415 0.0014268 5.86178V6.08178L1.83138 12.8938C1.91751 13.2021 2.09965 13.475 2.3514 13.6728C2.60315 13.8706 2.91143 13.9831 3.23141 13.9938H12.7813C13.1039 13.9969 13.4177 13.8895 13.6706 13.6893C13.9235 13.4891 14.1003 13.2084 14.1713 12.8938L16.0113 6.08178V5.86178C16.0161 5.76365 16.0003 5.66561 15.9647 5.57404C15.9291 5.48246 15.8746 5.39941 15.8048 5.33027C15.735 5.26113 15.6514 5.20746 15.5595 5.17275C15.4676 5.13803 15.3694 5.12305 15.2713 5.12878H11.8913ZM5.87142 5.12878L8.08138 1.90578L10.2813 5.12878H5.87142Z" fill="#666666"/>
</g>
<defs>
<clipPath id="clip0">
<rect width="16" height="14" fill="white"/>
</clipPath>
</defs>
</svg>
