<svg width="17" height="17" viewBox="0 0 17 17" fill="none" xmlns="http://www.w3.org/2000/svg">
<path d="M15.6098 2.08655C14.7305 1.14142 13.4983 0.603655 12.2074 0.601661C10.9155 0.603157 9.68205 1.14064 8.80139 2.08595L8.50125 2.40311L8.20111 2.08595C6.45363 0.205189 3.51232 0.09718 1.6316 1.84466C1.54826 1.92212 1.46777 2.00258 1.39031 2.08595C-0.463435 4.08543 -0.463435 7.17555 1.39031 9.17503L8.06017 16.2088C8.29092 16.4524 8.67547 16.4629 8.91908 16.2321C8.92705 16.2246 8.93481 16.2168 8.94236 16.2088L15.6098 9.17503C17.4634 7.17576 17.4634 4.08583 15.6098 2.08655ZM14.7306 8.33841H14.73L8.50125 14.908L2.27189 8.33841C0.855742 6.81062 0.855742 4.44976 2.27189 2.92197C3.55793 1.5281 5.73046 1.44071 7.12433 2.72674C7.192 2.78918 7.25711 2.8543 7.31955 2.92197L8.06017 3.70331C8.30424 3.94581 8.69829 3.94581 8.94236 3.70331L9.68297 2.92257C10.969 1.52871 13.1415 1.44131 14.5354 2.72735C14.6031 2.78979 14.6682 2.8549 14.7306 2.92257C16.1591 4.45279 16.1696 6.81795 14.7306 8.33841Z" fill="#E4E4E4"/>
</svg>
