<svg width="16" height="16" viewBox="0 0 16 16" fill="none" xmlns="http://www.w3.org/2000/svg">
<g clip-path="url(#clip0)">
<path fill-rule="evenodd" clip-rule="evenodd" d="M11.4301 10.0571H10.6999L10.42 9.78209C11.371 8.7293 11.8951 7.35975 11.89 5.94109C11.89 4.7655 11.5414 3.61629 10.8884 2.63875C10.2354 1.66121 9.3072 0.899221 8.22119 0.449112C7.13517 -0.000997812 5.94006 -0.119022 4.78698 0.109962C3.6339 0.338946 2.57466 0.904657 1.74304 1.73558C0.911417 2.5665 0.344818 3.62533 0.114865 4.77822C-0.115089 5.93111 0.00185025 7.12629 0.451047 8.21268C0.900243 9.29908 1.66155 10.2279 2.63855 10.8818C3.61554 11.5356 4.76434 11.8851 5.93994 11.8861C7.35745 11.8926 8.7266 11.3706 9.78003 10.4221L10.0601 10.6971V11.4291L14.63 16.0021L16 14.6301L11.4301 10.0571ZM5.93994 10.0571C5.126 10.0563 4.33066 9.8142 3.65429 9.3614C2.97793 8.90861 2.4509 8.26544 2.14001 7.51321C1.82912 6.76099 1.74824 5.93347 1.90759 5.13528C2.06694 4.3371 2.45938 3.60407 3.03528 3.02888C3.61117 2.45368 4.34468 2.06215 5.14306 1.90377C5.94145 1.74539 6.7689 1.82728 7.52075 2.13908C8.2726 2.45088 8.91509 2.97859 9.36706 3.65551C9.81904 4.33243 10.0603 5.12815 10.0601 5.94209C10.062 6.48346 9.95677 7.01986 9.75036 7.52034C9.54396 8.02082 9.24046 8.47547 8.85742 8.85804C8.47438 9.24061 8.0194 9.54354 7.51867 9.74934C7.01794 9.95514 6.4813 10.0597 5.93994 10.0571V10.0571Z" fill="#666666"/>
</g>
<defs>
<clipPath id="clip0">
<rect width="16" height="16" fill="white"/>
</clipPath>
</defs>
</svg>
