<svg width="16" height="16" viewBox="0 0 16 16" fill="none" xmlns="http://www.w3.org/2000/svg">
<path fill-rule="evenodd" clip-rule="evenodd" d="M8 10C5.33 10 0 11.335 0 14V16H16V14C16 11.334 10.67 10 8 10ZM8 0C7.20887 0 6.43551 0.234592 5.77771 0.674118C5.11991 1.11364 4.60719 1.73836 4.30444 2.46927C4.00169 3.20017 3.92256 4.00444 4.0769 4.78036C4.23125 5.55629 4.61222 6.26902 5.17163 6.82843C5.73104 7.38784 6.44368 7.7688 7.2196 7.92314C7.99553 8.07748 8.79986 7.99827 9.53076 7.69552C10.2617 7.39277 10.8864 6.88008 11.3259 6.22228C11.7655 5.56449 12 4.79113 12 4C12 2.93913 11.5785 1.92172 10.8284 1.17157C10.0782 0.421424 9.06087 0 8 0Z" fill="#666666"/>
</svg>
